<?xml version="1.0" standalone="no"?>
<!DOCTYPE svg PUBLIC "-//W3C//DTD SVG 20010904//EN"
 "http://www.w3.org/TR/2001/REC-SVG-20010904/DTD/svg10.dtd">
<svg version="1.0" xmlns="http://www.w3.org/2000/svg"
 width="795.000000pt" height="795.000000pt" viewBox="0 0 795.000000 795.000000"
 preserveAspectRatio="xMidYMid meet">
<metadata>
Created by potrace 1.11, written by Peter Selinger 2001-2013
</metadata>
<g transform="translate(0.000000,795.000000) scale(0.100000,-0.100000)"
fill="#000000" stroke="none">
<path d="M1023 5678 c3 -2489 -1 -2311 62 -2653 100 -542 302 -1023 599 -1423
252 -339 839 -812 1497 -1207 245 -147 720 -385 782 -392 42 -5 62 3 299 124
482 247 937 533 1423 898 226 169 340 270 455 400 407 462 645 1008 762 1750
l22 140 3 2318 3 2317 -2955 0 -2955 0 3 -2272z m5697 2037 l0 -25 -2735 0
-2735 0 0 25 0 25 2735 0 2735 0 0 -25z m-3677 -170 c90 -19 155 -56 222 -126
79 -83 108 -151 113 -265 7 -148 -33 -250 -137 -347 -85 -80 -183 -117 -309
-117 -169 0 -318 94 -394 248 -32 64 -33 72 -33 182 0 110 1 118 33 182 74
151 233 252 402 257 19 0 66 -6 103 -14z m1072 -15 c132 -19 205 -90 205 -201
0 -69 -39 -137 -104 -177 -24 -15 -51 -31 -60 -37 -13 -8 3 -33 98 -150 62
-77 141 -166 176 -198 l63 -57 -67 0 c-77 0 -120 15 -158 56 -28 31 -288 363
-288 368 0 2 21 9 48 16 104 26 153 73 160 155 4 44 1 55 -22 82 -30 36 -90
53 -187 53 l-61 0 4 -365 3 -365 -67 0 -68 0 0 415 0 415 128 0 c70 0 159 -5
197 -10z m1173 4 c19 -6 22 -13 22 -55 l0 -49 -170 0 -170 0 0 -110 0 -110
135 0 135 0 0 -50 0 -50 -135 0 -135 0 0 -150 0 -150 195 0 195 0 0 -50 0 -50
-265 0 -265 0 0 415 0 415 218 0 c119 0 227 -3 240 -6z m1007 -369 c83 -203
159 -389 168 -412 l17 -43 -73 0 -74 0 -55 148 -56 147 -159 3 -160 2 -54
-147 -54 -148 -59 -3 c-45 -2 -57 0 -54 10 3 7 79 194 169 416 l164 403 64 -3
65 -3 151 -370z m-4595 -45 l0 -410 -70 0 -70 0 0 410 0 410 70 0 70 0 0 -410z
m300 228 c-82 -101 -149 -186 -147 -190 5 -16 306 -344 361 -394 l59 -54 -70
0 c-38 0 -84 5 -101 11 -20 7 -86 72 -194 192 -90 99 -171 191 -180 203 -18
22 -16 25 140 218 l157 196 62 0 63 0 -150 -182z m4720 -818 c0 -20 -7 -20
-2735 -20 -2728 0 -2735 0 -2735 20 0 20 7 20 2735 20 2728 0 2735 0 2735 -20z
m-1731 -166 c26 -5 31 -11 31 -34 l0 -28 -37 14 c-48 17 -75 17 -108 2 -22
-10 -26 -17 -23 -47 3 -34 8 -38 83 -78 111 -58 133 -92 103 -158 -21 -46 -74
-70 -154 -70 -74 0 -104 13 -104 44 0 16 4 16 60 3 52 -13 65 -13 97 -1 32 12
39 20 41 48 4 42 -8 56 -89 96 -37 19 -76 46 -88 61 -70 88 43 177 188 148z
m-3359 -159 c0 -154 0 -156 26 -182 23 -23 31 -25 86 -21 94 7 98 15 98 204
l0 154 26 0 26 0 -4 -157 c-4 -176 -11 -198 -73 -227 -42 -20 -137 -21 -175
-1 -15 8 -38 27 -49 41 -19 25 -21 40 -21 185 l0 159 30 0 30 0 0 -155z m740
7 l115 -147 3 148 3 147 24 0 25 0 0 -196 0 -195 -27 3 c-22 2 -51 33 -141
148 -63 80 -118 147 -123 148 -5 2 -9 -64 -9 -147 0 -144 -1 -151 -20 -151
-19 0 -20 7 -20 195 l0 195 28 -1 c23 0 45 -22 142 -147z m530 -47 l0 -195
-30 0 -30 0 0 195 0 195 30 0 30 0 0 -195z m362 43 c30 -84 58 -153 63 -153 4
0 33 69 63 153 50 137 57 152 79 152 12 0 23 -1 23 -2 0 -2 -34 -88 -74 -193
-72 -184 -75 -190 -102 -190 -27 0 -30 6 -81 140 -29 77 -61 164 -72 193 l-20
52 33 0 33 0 55 -152z m688 132 c0 -18 -7 -20 -80 -20 l-80 0 0 -60 0 -60 65
0 c58 0 65 -2 65 -20 0 -18 -7 -20 -65 -20 l-65 0 0 -70 0 -70 95 0 c95 0 95
0 95 -25 l0 -25 -125 0 -125 0 0 195 0 195 110 0 c103 0 110 -1 110 -20z m521
-18 c45 -50 34 -105 -28 -143 l-33 -21 42 -51 c23 -29 60 -71 82 -94 40 -43
40 -43 14 -43 -45 0 -56 9 -128 102 -66 86 -76 108 -46 108 30 0 66 41 66 75
0 42 -19 57 -80 63 l-50 5 0 -177 0 -176 -30 0 -30 0 0 196 0 196 96 -4 c94
-3 96 -4 125 -36z m929 -157 l0 -195 -30 0 -30 0 0 195 0 195 30 0 30 0 0
-195z m560 175 c0 -18 -7 -20 -55 -20 l-55 0 0 -175 0 -175 -30 0 -30 0 0 175
0 175 -55 0 c-48 0 -55 2 -55 20 0 19 7 20 140 20 133 0 140 -1 140 -20z m289
-65 c29 -47 55 -85 57 -85 3 0 29 38 59 85 45 70 60 85 80 85 24 0 22 -5 -45
-105 l-70 -104 0 -91 0 -90 -30 0 -30 0 0 87 0 86 -65 102 c-36 56 -65 105
-65 109 0 3 12 6 28 6 23 0 35 -12 81 -85z m461 -460 l0 -25 -2735 0 -2735 0
0 25 0 25 2735 0 2735 0 0 -25z m7 -1317 c-3 -1044 -4 -1088 -25 -1233 -128
-895 -467 -1547 -1032 -1985 -352 -272 -780 -559 -1173 -784 -189 -108 -492
-266 -511 -266 -23 0 -407 195 -576 292 -280 161 -546 337 -820 543 -441 332
-667 561 -855 869 -190 309 -333 684 -414 1081 -67 331 -65 272 -68 1473 l-4
1092 2741 0 2741 0 -4 -1082z"/>
<path d="M2849 7446 c-78 -21 -143 -79 -181 -161 -19 -41 -23 -67 -23 -150 0
-87 3 -107 26 -156 60 -127 151 -189 279 -189 124 0 211 55 262 165 19 42 23
67 23 155 0 99 -2 110 -32 171 -72 146 -202 206 -354 165z"/>
<path d="M6002 7267 c-29 -74 -52 -137 -52 -140 0 -4 50 -7 111 -7 102 0 111
1 105 18 -54 144 -102 262 -107 262 -3 0 -29 -60 -57 -133z"/>
<path d="M4700 5149 c-25 -5 -65 -17 -90 -28 -186 -83 -191 -84 -395 -90
l-190 -6 -89 -48 c-48 -26 -116 -54 -150 -63 -109 -28 -242 -101 -305 -168
-116 -123 -181 -185 -219 -207 -22 -13 -68 -43 -103 -66 -35 -23 -88 -56 -118
-75 -124 -77 -199 -184 -261 -371 -37 -112 -84 -182 -179 -269 -70 -63 -129
-149 -197 -287 -27 -53 -68 -117 -97 -149 -43 -48 -55 -56 -81 -53 -50 4 -179
39 -268 72 -129 47 -127 47 -99 16 35 -39 193 -114 284 -135 72 -17 76 -19 64
-37 -21 -28 -127 -15 -277 34 -68 22 -126 38 -128 36 -27 -27 153 -101 310
-129 l73 -13 -68 -8 c-81 -9 -272 7 -407 35 -116 24 -132 25 -106 5 26 -20
213 -62 341 -78 l110 -13 -68 -18 c-60 -16 -79 -17 -157 -7 -49 6 -97 14 -106
18 -11 4 -15 2 -12 -7 2 -8 31 -23 64 -34 l59 -20 -60 -13 c-33 -7 -73 -17
-90 -22 -29 -9 -29 -9 13 -10 24 -1 78 6 120 15 76 16 164 12 335 -15 l38 -6
-63 -37 c-62 -37 -69 -38 -229 -53 -90 -8 -168 -16 -174 -17 -5 -1 52 -5 128
-8 l138 -5 -100 -55 c-55 -30 -101 -58 -101 -62 0 -10 125 34 215 77 70 33 96
39 209 51 72 8 131 12 133 10 9 -9 -81 -128 -131 -173 -63 -58 -57 -66 21 -27
59 29 112 83 144 146 12 24 23 44 24 46 2 2 23 0 48 -3 34 -5 48 -13 58 -33
15 -27 93 -82 118 -82 9 0 30 -23 46 -51 60 -102 187 -189 276 -189 37 0 119
20 119 29 -1 3 -18 18 -40 33 -42 29 -61 53 -84 109 l-15 37 33 -8 c125 -28
275 -159 348 -304 33 -65 60 -136 52 -136 -10 0 -110 53 -126 67 -15 14 -18
13 -24 -12 -19 -75 20 -179 102 -273 41 -46 44 -55 44 -105 0 -52 2 -56 44
-90 33 -28 45 -45 49 -74 11 -64 41 -84 292 -193 34 -14 72 -22 120 -22 61 -1
80 3 145 35 59 28 93 54 159 122 l84 86 -6 160 c-5 153 -4 164 20 235 16 48
37 88 59 111 33 35 35 36 91 30 41 -4 88 -21 160 -57 56 -27 107 -50 114 -50
6 0 24 -11 41 -25 16 -14 38 -25 49 -25 10 0 43 -22 73 -50 57 -51 104 -80
130 -80 8 0 27 16 41 34 15 20 42 40 63 47 63 20 82 36 82 72 0 38 15 57 45
57 28 0 65 27 65 49 0 9 -25 39 -56 66 -31 26 -63 64 -71 84 -9 20 -26 46 -38
59 -24 24 -30 48 -41 172 -5 61 -11 80 -31 102 -25 26 -26 30 -19 115 4 48 8
99 9 113 2 19 -3 26 -20 28 -35 5 -45 -34 -69 -263 -5 -48 -8 -56 -16 -40 -6
11 -18 29 -28 40 -18 21 -50 111 -50 140 0 10 -15 31 -32 47 -18 17 -42 49
-53 72 -18 37 -31 46 -122 91 -56 28 -108 56 -115 63 -9 9 -13 50 -13 141 0
123 -1 129 -28 170 -29 43 -29 44 -14 95 16 52 19 88 21 287 1 112 0 118 -31
179 -18 34 -33 76 -33 91 0 17 -12 42 -29 61 -15 18 -32 44 -36 58 -12 43 -35
70 -56 70 -20 0 -21 -4 -17 -55 3 -37 11 -63 25 -78 16 -18 22 -42 27 -120 10
-134 -7 -186 -86 -273 -33 -37 -58 -74 -58 -86 0 -12 16 -39 36 -59 40 -41 47
-78 20 -108 -11 -12 -16 -31 -14 -53 2 -27 10 -36 40 -51 21 -10 58 -41 83
-69 l45 -50 0 -94 0 -93 -44 -31 c-47 -32 -61 -57 -51 -90 10 -30 51 -47 154
-64 51 -8 99 -20 107 -27 7 -6 19 -29 26 -51 15 -50 2 -62 -71 -71 -71 -8
-161 -47 -185 -80 -18 -25 -20 -40 -18 -126 3 -112 -8 -148 -82 -260 -71 -108
-70 -102 -76 -291 -3 -109 -10 -183 -18 -197 -20 -36 -143 -141 -203 -173 -66
-35 -118 -39 -163 -11 -17 10 -42 22 -56 26 -62 18 -92 40 -130 97 -46 69 -50
94 -16 109 34 16 85 4 162 -37 57 -30 73 -34 108 -29 68 12 147 57 215 123
l64 63 -7 117 c-8 152 -17 181 -84 276 -62 88 -82 150 -82 257 0 54 -5 73 -28
110 -16 24 -37 66 -47 94 -11 27 -38 70 -61 96 -23 26 -50 69 -59 95 -24 65
-32 73 -85 96 -25 11 -54 28 -65 38 -17 16 -105 57 -156 73 -10 3 -18 21 -22
49 -6 45 -34 78 -66 78 -27 0 -57 -39 -76 -98 -26 -80 -64 -119 -125 -127 -34
-5 -54 -13 -61 -26 -5 -11 -20 -19 -35 -19 -14 0 -37 -12 -52 -26 -49 -46
-102 -54 -102 -14 0 11 19 27 53 44 28 14 76 46 106 70 54 44 125 125 117 133
-2 2 -28 -11 -57 -30 -94 -59 -209 -119 -209 -108 0 17 110 108 225 187 62 42
100 74 89 74 -54 0 -287 -141 -346 -209 -44 -51 -71 -64 -117 -56 -48 8 -56
-2 -71 -93 -16 -97 -8 -105 65 -69 48 23 56 25 62 11 8 -21 -4 -31 -73 -57
-49 -19 -59 -27 -59 -47 0 -22 8 -26 78 -43 42 -11 77 -22 77 -26 0 -22 -198
-51 -253 -37 -31 7 -67 63 -67 102 0 16 9 44 21 63 15 25 19 43 14 68 -5 29
-3 35 20 45 19 9 25 19 25 43 0 33 28 82 81 143 35 40 38 72 7 72 -13 0 -47
-26 -89 -69 -41 -42 -83 -74 -105 -81 -44 -15 -143 -8 -154 10 -13 21 0 41 32
47 20 4 38 19 56 46 14 21 28 34 30 28 2 -6 -3 -23 -12 -36 -22 -33 -20 -37
11 -33 19 2 32 12 42 33 8 17 29 48 48 69 18 22 33 43 33 48 0 14 -34 9 -59
-8 -19 -14 -25 -14 -32 -3 -19 31 -1 85 57 171 38 57 61 79 133 125 102 65
139 98 156 137 l13 29 7 -41 c9 -56 31 -55 84 3 45 49 48 60 26 131 -23 77
-19 113 20 178 37 62 37 76 1 76 -23 0 -56 -30 -95 -87 -46 -67 -57 -19 -16
64 21 40 35 56 70 72 25 12 48 21 53 21 4 0 23 11 42 25 19 14 42 25 52 25 16
0 18 -8 16 -57 l-3 -58 38 -3 c59 -5 179 16 207 37 29 21 38 49 18 55 -7 3
-34 7 -60 11 l-48 6 15 29 c20 39 19 53 -5 75 -21 19 -21 19 12 37 42 22 96
23 149 2 32 -13 45 -27 62 -63 18 -38 29 -48 59 -55 75 -19 128 30 128 118 0
38 -5 51 -35 80 -28 28 -49 38 -112 52 -43 9 -80 18 -82 20 -11 10 48 56 96
74 67 25 94 25 143 0 43 -22 85 -25 126 -10 25 10 26 14 21 57 l-5 46 74 -6
c85 -8 98 0 108 62 12 76 44 86 147 45 80 -32 114 -64 128 -118 11 -46 37 -74
91 -101 19 -10 43 -24 53 -33 20 -18 245 -38 260 -23 15 15 -2 48 -33 61 -16
6 -37 21 -47 32 -10 11 -42 31 -71 44 -49 21 -55 29 -82 88 -17 36 -30 79 -30
96 0 31 0 32 84 45 21 4 50 15 65 26 37 26 151 53 195 45 37 -7 39 -11 37 -56
-3 -46 25 -58 190 -86 169 -28 219 -46 288 -102 80 -65 91 -79 91 -117 0 -19
-4 -35 -10 -35 -5 0 -37 29 -72 64 -35 36 -74 67 -88 69 -14 3 -65 15 -115 28
-58 14 -123 23 -182 24 -89 1 -94 2 -134 34 -47 38 -131 74 -154 65 -20 -8
-19 -48 2 -65 9 -8 30 -18 46 -24 44 -14 56 -57 28 -96 -39 -52 -20 -91 53
-104 21 -4 54 -21 73 -38 43 -38 88 -41 128 -9 25 20 36 22 87 16 52 -6 62 -4
81 15 26 23 87 40 87 23 0 -6 -10 -14 -22 -18 -35 -10 -58 -35 -58 -60 0 -34
40 -41 116 -21 72 19 123 21 176 7 61 -17 60 -34 -9 -107 -21 -22 -54 -62 -73
-89 -19 -27 -57 -74 -85 -105 -27 -32 -66 -79 -85 -105 -97 -131 -129 -148
-188 -99 -17 14 -60 32 -103 42 -72 18 -74 19 -128 87 l-55 68 -45 -6 c-24 -3
-50 -11 -57 -17 -21 -17 -17 -71 11 -151 18 -51 25 -90 23 -131 -2 -52 0 -60
25 -80 39 -32 48 -68 41 -158 -4 -50 -2 -100 6 -137 12 -57 11 -60 -19 -120
-33 -65 -41 -138 -19 -160 25 -25 65 -14 100 27 18 22 46 45 61 52 27 12 31
19 42 79 4 19 16 61 27 92 22 62 22 89 -3 252 l-13 89 34 29 c28 23 43 28 74
26 l40 -3 16 -65 c9 -36 27 -98 40 -138 20 -65 21 -80 11 -130 -20 -103 -73
-194 -178 -302 -84 -88 -93 -101 -83 -119 15 -29 114 -30 170 -1 22 11 53 20
69 20 23 0 39 11 70 47 22 26 44 44 48 40 4 -5 8 -50 8 -100 0 -86 2 -96 35
-156 18 -35 54 -86 78 -113 40 -44 49 -49 81 -46 31 3 36 7 39 32 2 19 -8 47
-32 86 -45 73 -70 167 -62 232 3 26 9 70 12 97 6 47 8 50 50 66 24 9 45 20 45
23 1 4 3 20 5 35 3 32 29 77 44 77 5 0 19 -18 29 -39 42 -81 80 -89 133 -28
37 43 35 66 -11 119 l-39 44 -4 106 c-3 96 -5 109 -27 132 -24 25 -24 28 -12
93 6 38 13 93 14 123 2 49 5 55 25 58 15 2 37 -10 68 -37 68 -59 191 -81 218
-39 21 34 -5 70 -74 106 -77 40 -90 50 -90 68 0 10 13 14 39 14 53 0 81 12
119 49 23 23 40 31 66 31 44 0 76 29 76 69 0 34 16 53 59 71 26 10 31 18 31
46 0 31 -3 34 -59 55 -33 11 -69 31 -80 43 -19 20 -19 24 -6 43 10 14 31 24
60 28 53 8 67 23 69 71 2 55 -29 73 -154 89 -82 11 -117 21 -169 48 -37 19
-107 47 -156 62 -50 15 -96 32 -103 38 -12 9 -103 42 -323 117 -48 16 -115 34
-150 39 -75 13 -295 13 -359 0z m-1382 -2067 c2 -12 9 -22 15 -23 7 -1 62 -2
122 -2 114 -2 167 -16 173 -48 1 -8 -8 -21 -22 -29 -20 -10 -31 -11 -56 0 -21
9 -83 12 -198 12 l-167 -1 -82 -36 c-98 -43 -189 -63 -205 -47 -18 18 86 62
148 62 41 0 55 5 74 25 13 14 29 25 37 25 7 0 30 15 50 33 69 62 105 71 111
29z m-1107 -48 c5 -15 8 -29 6 -31 -3 -2 -44 -3 -93 -1 l-89 3 70 26 c90 34
94 34 106 3z m89 -124 c20 -20 20 -20 -3 -24 -12 -3 -42 -7 -67 -11 l-45 -6
45 31 c25 16 46 30 48 30 1 0 11 -9 22 -20z m865 -147 c112 -152 132 -183 122
-183 -21 0 -131 56 -164 84 -43 36 -75 89 -67 111 7 18 41 35 64 32 8 -1 28
-21 45 -44z m335 27 c6 -11 44 -45 84 -75 111 -82 166 -161 166 -240 0 -28 4
-35 19 -35 14 0 21 9 26 33 4 17 14 42 22 55 21 34 43 12 43 -42 0 -24 12 -76
26 -117 17 -50 26 -98 27 -151 2 -69 0 -79 -23 -103 -19 -20 -32 -25 -60 -23
-45 4 -55 25 -70 143 -7 50 -18 102 -26 116 -7 15 -46 48 -86 74 -90 59 -98
68 -98 122 0 52 -14 81 -69 148 -44 54 -50 75 -25 99 21 21 31 20 44 -4z
m-642 -131 c13 -24 38 -64 54 -88 29 -42 30 -43 7 -36 -47 15 -116 68 -156
119 -25 31 -22 43 11 55 33 13 57 -1 84 -50z m1697 -3 c38 -23 54 -25 189 -28
143 -3 148 -2 166 20 24 29 30 18 33 -58 2 -54 -1 -64 -22 -81 -38 -31 -137
-19 -190 22 -13 11 -35 19 -49 19 -23 0 -24 -3 -19 -37 3 -21 9 -48 13 -60 6
-20 3 -23 -25 -23 -50 0 -163 115 -172 176 -4 28 10 74 23 74 6 0 30 -11 53
-24z m-945 -501 c41 -36 87 -71 103 -78 21 -9 27 -19 27 -44 0 -35 -22 -63
-50 -63 -21 0 -106 103 -138 165 -25 51 -36 85 -25 85 4 0 42 -29 83 -65z
m-210 -30 c41 -27 78 -54 83 -60 14 -18 3 -80 -14 -83 -34 -6 -142 117 -164
187 -8 26 -15 30 95 -44z"/>
<path d="M4044 4593 c-84 -86 -130 -219 -88 -253 8 -8 34 -17 57 -21 23 -4 51
-10 63 -14 15 -5 32 3 63 29 46 39 90 47 111 21 29 -35 77 -5 65 42 -6 26 -62
88 -98 108 -10 6 -24 34 -32 64 -15 59 -26 71 -68 71 -20 0 -40 -13 -73 -47z"/>
<path d="M4951 4570 c-88 -30 -134 -61 -114 -81 20 -20 90 -22 133 -5 22 9 55
16 73 16 53 0 105 48 91 84 -9 25 -86 19 -183 -14z"/>
<path d="M5129 4433 c-40 -21 -64 -25 -165 -30 -66 -3 -127 -10 -136 -15 -13
-6 -18 -21 -18 -56 0 -42 5 -52 38 -84 45 -45 97 -68 151 -68 48 0 129 37 136
61 3 10 23 32 43 49 101 85 127 125 102 155 -19 23 -97 17 -151 -12z"/>
<path d="M3750 4304 c-80 -42 -97 -59 -106 -98 -10 -49 -21 -56 -86 -56 -43 0
-72 -7 -110 -26 -48 -25 -57 -26 -144 -19 l-93 7 -60 -37 c-71 -44 -95 -80
-117 -174 -10 -46 -23 -76 -40 -91 -61 -58 -4 -83 123 -55 144 31 211 73 286
178 54 75 123 142 158 156 18 6 33 6 50 -3 46 -23 34 -132 -22 -202 l-31 -39
6 -97 c5 -83 3 -104 -14 -148 -11 -28 -20 -54 -20 -59 0 -5 14 -25 30 -46 17
-21 30 -45 30 -54 0 -10 -13 -27 -30 -39 -42 -31 -40 -64 5 -92 19 -12 47 -40
63 -63 23 -36 35 -43 75 -51 59 -12 101 1 105 31 2 13 -13 56 -34 97 -33 68
-36 80 -29 123 4 26 8 68 9 93 1 42 -1 46 -33 62 -59 30 -66 40 -51 90 6 24
15 71 20 105 4 38 15 72 29 89 23 29 28 85 11 130 -15 38 -4 62 35 79 25 10
36 22 40 42 3 15 10 48 17 73 19 78 21 117 6 123 -8 3 -43 -10 -78 -29z m-456
-298 c42 -17 50 -30 36 -56 -11 -20 -11 -20 -44 5 -43 33 -104 34 -133 3 -11
-13 -24 -44 -27 -70 -7 -47 -21 -62 -32 -34 -11 29 18 100 54 133 41 37 88 43
146 19z"/>
<path d="M4002 4213 c-5 -10 -17 -43 -27 -73 -10 -30 -29 -77 -42 -105 -18
-39 -23 -67 -23 -130 0 -98 10 -136 55 -211 19 -32 35 -66 35 -76 0 -10 -18
-53 -41 -96 -47 -88 -48 -127 -8 -182 22 -29 24 -39 20 -123 -9 -191 -7 -257
9 -267 28 -18 48 -10 100 38 65 59 73 94 58 241 -9 78 -9 117 0 160 19 90 15
123 -23 202 -45 95 -47 154 -7 225 25 45 27 57 26 154 -1 96 -4 111 -33 175
-18 38 -38 73 -44 77 -21 13 -46 9 -55 -9z"/>
<path d="M3516 3999 c-39 -11 -70 -42 -106 -106 -17 -29 -35 -53 -40 -53 -5 0
-16 -15 -24 -33 -8 -21 -25 -38 -45 -46 -31 -14 -41 -36 -19 -43 20 -7 85 8
110 24 13 9 38 44 56 80 30 60 36 67 92 91 44 19 60 31 60 45 0 34 -39 53 -84
41z"/>
<path d="M3014 3680 c-104 -36 -139 -80 -64 -80 21 0 50 5 64 12 20 9 41 8 98
-5 100 -22 253 -40 278 -32 23 7 27 30 5 39 -21 8 -19 24 6 31 13 5 19 14 17
28 -3 21 -8 21 -178 23 -145 1 -184 -1 -226 -16z"/>
<path d="M3819 3659 c-6 -13 -8 -36 -4 -58 4 -20 7 -70 6 -112 -2 -87 4 -109
29 -109 59 0 95 179 53 264 -21 42 -65 50 -84 15z"/>
<path d="M4455 1208 c-33 -5 -74 -7 -92 -4 -30 4 -33 2 -38 -27 -3 -18 -9 -53
-14 -79 -9 -53 -7 -58 25 -58 32 0 84 -47 84 -76 0 -13 -13 -38 -29 -56 -26
-29 -36 -33 -82 -34 -59 -1 -76 -18 -34 -34 45 -17 124 -12 165 11 49 28 70
66 70 127 0 60 -32 107 -80 117 -55 12 -28 44 38 45 27 0 62 33 62 60 0 11 -3
19 -7 19 -5 -1 -35 -6 -68 -11z"/>
<path d="M3739 1195 c-67 -36 -80 -176 -23 -236 16 -17 44 -38 62 -45 17 -8
32 -18 32 -22 0 -19 -62 -80 -99 -97 -45 -20 -51 -31 -23 -39 45 -15 136 35
187 102 86 112 84 291 -4 336 -37 20 -97 20 -132 1z m90 -93 c17 -36 24 -114
12 -131 -14 -21 -40 -6 -56 34 -37 87 6 181 44 97z"/>
<path d="M4052 1194 c-34 -24 -52 -68 -52 -129 0 -103 39 -155 118 -155 57 0
96 21 116 64 32 68 9 182 -45 220 -30 20 -108 21 -137 0z m99 -66 c7 -12 12
-46 13 -75 0 -41 -4 -58 -20 -73 l-20 -21 -19 22 c-15 15 -20 36 -20 79 0 81
38 120 66 68z"/>
<path d="M3502 1148 c6 -29 8 -97 6 -150 l-4 -98 49 0 49 0 -9 68 c-4 37 -7
104 -5 150 l2 82 -49 0 -48 0 9 -52z"/>
</g>
</svg>
